<svg class="diagram-root" style="background: #f5f6f6" xmlns="http://www.w3.org/2000/svg" xmlns:xlink="http://www.w3.org/1999/xlink"><style>.diagram-root { font-family: "Helvetica Neue", sans-serif; font-size: 12px; } .t { overflow: visible; } .t-bg { y: 40; fill: #fff;   } .th { fill: #005aa0;   } .tht { fill: #fff; font-size: 14px;  } .tf { fill: #323c46; overflow: visible; } .tf.pk { fill: #005aa0; font-weight: bold; } .tf.fk { font-weight: bold; } .ty { fill: #adb1b5; font-weight: normal; text-anchor: end; } .r { fill: transparent; stroke: #c3c3c3; stroke-width: 1; } .l { stroke: 1; } .i { fill: #c2c7ce; stroke: #c2c7ce; } .i.ix { fill: #afb3b6; stroke: #000; } .fa { fill: transparent; overflow: visible; } .fa .bg.hover { fill: #f7f7f7; } .c { cy: 12; r: 4; stroke: #d2d2dc; fill: #d2d2dc; } .hr { fill: transparent; stroke: #323c46; stroke-opacity: 0.035; stroke-width: 13; } .dc { stroke: #fa5a3c; fill: #fa5a3c; } .x { stroke: white; stroke-width: 1; } .hl .th { fill: #1b9bff; } .hl .tht {  } .fhl .bg { fill: #e7f4ff; } .fhls .bg {  } .r.hl { stroke: #1b9bff; } .dim { opacity: 0.25; }</style><g class="drawing-wrapper" transform="translate(115.67, 570) scale(1,1)"><g class="rs"><path d="M 69.71 -28.860000000000014 m -1, 0 a 1,1 0 1,0 2,0 a 1,1 0 1,0 -2,0 M 69.71 -28.860000000000014 m -0.5, 0 a 0.5,0.5 0 1,0 1,0 a 0.5,0.5 0 1,0 -1,0  M69.71 -28.860000000000014 L69.71 -28.860000000000014 57.709999999999994 -28.860000000000014 M 69.71 -22.860000000000014 m -1, 0 a 1,1 0 1,0 2,0 a 1,1 0 1,0 -2,0 M 69.71 -22.860000000000014 m -0.5, 0 a 0.5,0.5 0 1,0 1,0 a 0.5,0.5 0 1,0 -1,0  M69.71 -22.860000000000014 L69.71 -22.860000000000014 62.709999999999994 -28.860000000000014 69.71 -34.860000000000014 M 69.71 -34.860000000000014 m -1, 0 a 1,1 0 1,0 2,0 a 1,1 0 1,0 -2,0 M 69.71 -34.860000000000014 m -0.5, 0 a 0.5,0.5 0 1,0 1,0 a 0.5,0.5 0 1,0 -1,0  M57.709999999999994 -28.860000000000014 C -253.69800000000004 -28.860000000000014, -155.67000000000002 -198.22, -105.67 -198.22 M -93.67 -198.22 m -1, 0 a 1,1 0 1,0 2,0 a 1,1 0 1,0 -2,0 M -93.67 -198.22 m -0.5, 0 a 0.5,0.5 0 1,0 1,0 a 0.5,0.5 0 1,0 -1,0  M-93.67 -198.22 L-93.67 -198.22 -105.67 -198.22 M-99.67 -192.22 L-99.67 -192.22 -99.67 -204.22" id="h3147111352" class="r"></path><path d="M 261.03 -408 m -1, 0 a 1,1 0 1,0 2,0 a 1,1 0 1,0 -2,0 M 261.03 -408 m -0.5, 0 a 0.5,0.5 0 1,0 1,0 a 0.5,0.5 0 1,0 -1,0  M261.03 -408 L261.03 -408 273.03 -408 M 261.03 -402 m -1, 0 a 1,1 0 1,0 2,0 a 1,1 0 1,0 -2,0 M 261.03 -402 m -0.5, 0 a 0.5,0.5 0 1,0 1,0 a 0.5,0.5 0 1,0 -1,0  M261.03 -402 L261.03 -402 268.03 -408 261.03 -414 M 261.03 -414 m -1, 0 a 1,1 0 1,0 2,0 a 1,1 0 1,0 -2,0 M 261.03 -414 m -0.5, 0 a 0.5,0.5 0 1,0 1,0 a 0.5,0.5 0 1,0 -1,0  M273.03 -408 C 323.03 -408, 330.72799999999995 -103.86000000000001, 260.2 -103.86000000000001 M 248.2 -103.86000000000001 m -1, 0 a 1,1 0 1,0 2,0 a 1,1 0 1,0 -2,0 M 248.2 -103.86000000000001 m -0.5, 0 a 0.5,0.5 0 1,0 1,0 a 0.5,0.5 0 1,0 -1,0  M248.2 -103.86000000000001 L248.2 -103.86000000000001 260.2 -103.86000000000001 M254.2 -97.86000000000001 L254.2 -97.86000000000001 254.2 -109.86000000000001" id="h1944546897" class="r"></path><path d="M 143 -383 m -1, 0 a 1,1 0 1,0 2,0 a 1,1 0 1,0 -2,0 M 143 -383 m -0.5, 0 a 0.5,0.5 0 1,0 1,0 a 0.5,0.5 0 1,0 -1,0  M143 -383 L143 -383 131 -383 M 143 -377 m -1, 0 a 1,1 0 1,0 2,0 a 1,1 0 1,0 -2,0 M 143 -377 m -0.5, 0 a 0.5,0.5 0 1,0 1,0 a 0.5,0.5 0 1,0 -1,0  M143 -377 L143 -377 136 -383 143 -389 M 143 -389 m -1, 0 a 1,1 0 1,0 2,0 a 1,1 0 1,0 -2,0 M 143 -389 m -0.5, 0 a 0.5,0.5 0 1,0 1,0 a 0.5,0.5 0 1,0 -1,0  M131 -383 Q 107.34 -383, 83.68 -290.61 T 36.36 -198.22 M 24.36 -198.22 m -1, 0 a 1,1 0 1,0 2,0 a 1,1 0 1,0 -2,0 M 24.36 -198.22 m -0.5, 0 a 0.5,0.5 0 1,0 1,0 a 0.5,0.5 0 1,0 -1,0  M24.36 -198.22 L24.36 -198.22 36.36 -198.22 M30.36 -192.22 L30.36 -192.22 30.36 -204.22" id="h2577053134" class="r"></path><path d="M 143 -358 m -1, 0 a 1,1 0 1,0 2,0 a 1,1 0 1,0 -2,0 M 143 -358 m -0.5, 0 a 0.5,0.5 0 1,0 1,0 a 0.5,0.5 0 1,0 -1,0  M143 -358 L143 -358 131 -358 M 143 -352 m -1, 0 a 1,1 0 1,0 2,0 a 1,1 0 1,0 -2,0 M 143 -352 m -0.5, 0 a 0.5,0.5 0 1,0 1,0 a 0.5,0.5 0 1,0 -1,0  M143 -352 L143 -352 136 -358 143 -364 M 143 -364 m -1, 0 a 1,1 0 1,0 2,0 a 1,1 0 1,0 -2,0 M 143 -364 m -0.5, 0 a 0.5,0.5 0 1,0 1,0 a 0.5,0.5 0 1,0 -1,0  M131 -358 C 81 -358, -36.684000000000026 -200.86, 327.14 -200.86 M 339.14 -200.86 m -1, 0 a 1,1 0 1,0 2,0 a 1,1 0 1,0 -2,0 M 339.14 -200.86 m -0.5, 0 a 0.5,0.5 0 1,0 1,0 a 0.5,0.5 0 1,0 -1,0  M339.14 -200.86 L339.14 -200.86 327.14 -200.86 M333.14 -194.86 L333.14 -194.86 333.14 -206.86" id="h1406692461" class="r"></path></g><g class="hrs"></g><g class="ts"><svg width="118.03" height="100" x="-93.67" y="-255.22" id="h851034602" class="t"><rect height="40" width="118.03" class="th"></rect><text x="13" y="25" class="tht">REGION</text><rect height="60" width="118.03" class="t-bg"></rect><text x="13" y="61" class="tf pk">id<tspan x="105.03" class="ty">SERIAL</tspan></text><path d="M7,14A2,2 0 0,1 5,12A2,2 0 0,1 7,10A2,2 0 0,1 9,12A2,2 0 0,1 7,14M12.65,10C11.83,7.67 9.61,6 7, 6A6, 6 0 0, 0 1, 12A6, 6 0 0, 0 7, 18C9.61, 18 11.83, 16.33 12.65, 14H17V18H21V14H23V10H12.65Z" class="i pk" transform="translate(42.344453125, 48) scale(0.65)"></path><text x="13" y="86" class="tf">name<tspan x="105.03" class="ty">TEXT</tspan></text></svg><svg width="178.49" height="150" x="69.71" y="-160.86" id="h4243341152" class="t"><rect height="40" width="178.49" class="th"></rect><text x="13" y="25" class="tht">USER</text><rect height="110" width="178.49" class="t-bg"></rect><text x="13" y="61" class="tf pk">id<tspan x="165.49" class="ty">SERIAL</tspan></text><path d="M7,14A2,2 0 0,1 5,12A2,2 0 0,1 7,10A2,2 0 0,1 9,12A2,2 0 0,1 7,14M12.65,10C11.83,7.67 9.61,6 7, 6A6, 6 0 0, 0 1, 12A6, 6 0 0, 0 7, 18C9.61, 18 11.83, 16.33 12.65, 14H17V18H21V14H23V10H12.65Z" class="i pk" transform="translate(102.80445312500001, 48) scale(0.65)"></path><text x="13" y="86" class="tf">username<tspan x="165.49" class="ty">VARCHAR(15)</tspan></text><text x="13" y="111" class="tf">password<tspan x="165.49" class="ty">VARCHAR(20)</tspan></text><text x="13" y="136" class="tf fk">perferred_reg<tspan x="165.49" class="ty">INT</tspan></text></svg><svg width="118.03" height="100" x="339.14" y="-257.86" id="h353026235" class="t"><rect height="40" width="118.03" class="th"></rect><text x="13" y="25" class="tht">CATEGORIES</text><rect height="60" width="118.03" class="t-bg"></rect><text x="13" y="61" class="tf pk">id<tspan x="105.03" class="ty">SERIAL</tspan></text><path d="M7,14A2,2 0 0,1 5,12A2,2 0 0,1 7,10A2,2 0 0,1 9,12A2,2 0 0,1 7,14M12.65,10C11.83,7.67 9.61,6 7, 6A6, 6 0 0, 0 1, 12A6, 6 0 0, 0 7, 18C9.61, 18 11.83, 16.33 12.65, 14H17V18H21V14H23V10H12.65Z" class="i pk" transform="translate(42.344453125, 48) scale(0.65)"></path><text x="13" y="86" class="tf">name<tspan x="105.03" class="ty">TEXT</tspan></text></svg><svg width="118.03" height="200" x="143" y="-540" id="h2461946525" class="t"><rect height="40" width="118.03" class="th"></rect><text x="13" y="25" class="tht">POSTS</text><rect height="160" width="118.03" class="t-bg"></rect><text x="13" y="61" class="tf pk">id<tspan x="105.03" class="ty">SERIAL</tspan></text><path d="M7,14A2,2 0 0,1 5,12A2,2 0 0,1 7,10A2,2 0 0,1 9,12A2,2 0 0,1 7,14M12.65,10C11.83,7.67 9.61,6 7, 6A6, 6 0 0, 0 1, 12A6, 6 0 0, 0 7, 18C9.61, 18 11.83, 16.33 12.65, 14H17V18H21V14H23V10H12.65Z" class="i pk" transform="translate(42.344453125, 48) scale(0.65)"></path><text x="13" y="86" class="tf">title<tspan x="105.03" class="ty">TEXT</tspan></text><text x="13" y="111" class="tf">content<tspan x="105.03" class="ty">TEXT</tspan></text><text x="13" y="136" class="tf fk">user_id<tspan x="105.03" class="ty">INT</tspan></text><text x="13" y="161" class="tf fk">reg_id<tspan x="105.03" class="ty">INT</tspan></text><text x="13" y="186" class="tf fk">cat_id<tspan x="105.03" class="ty">INT</tspan></text></svg></g></g><text class="qdbd-link" x="10" y="20">www.quickdatabasediagrams.com</text></svg>