<svg class="diagram-root" style="background: #f5f6f6" xmlns="http://www.w3.org/2000/svg" xmlns:xlink="http://www.w3.org/1999/xlink"><style>.diagram-root { font-family: "Helvetica Neue", sans-serif; font-size: 12px; } .t { overflow: visible; } .t-bg { y: 40; fill: #fff;   } .th { fill: #005aa0;   } .tht { fill: #fff; font-size: 14px;  } .tf { fill: #323c46; overflow: visible; } .tf.pk { fill: #005aa0; font-weight: bold; } .tf.fk { font-weight: bold; } .ty { fill: #adb1b5; font-weight: normal; text-anchor: end; } .r { fill: transparent; stroke: #c3c3c3; stroke-width: 1; } .l { stroke: 1; } .i { fill: #c2c7ce; stroke: #c2c7ce; } .i.ix { fill: #afb3b6; stroke: #000; } .fa { fill: transparent; overflow: visible; } .fa .bg.hover { fill: #f7f7f7; } .c { cy: 12; r: 4; stroke: #d2d2dc; fill: #d2d2dc; } .hr { fill: transparent; stroke: #323c46; stroke-opacity: 0.035; stroke-width: 13; } .dc { stroke: #fa5a3c; fill: #fa5a3c; } .x { stroke: white; stroke-width: 1; } .hl .th { fill: #1b9bff; } .hl .tht {  } .fhl .bg { fill: #e7f4ff; } .fhls .bg {  } .r.hl { stroke: #1b9bff; } .dim { opacity: 0.25; }</style><g class="drawing-wrapper" transform="translate(-94.85153846153835, -14.439999999999998) scale(1,1)"><g class="rs"><path d="M 364.45 126.44 m -1, 0 a 1,1 0 1,0 2,0 a 1,1 0 1,0 -2,0 M 364.45 126.44 m -0.5, 0 a 0.5,0.5 0 1,0 1,0 a 0.5,0.5 0 1,0 -1,0  M364.45 126.44 L364.45 126.44 352.45 126.44 M 364.45 132.44 m -1, 0 a 1,1 0 1,0 2,0 a 1,1 0 1,0 -2,0 M 364.45 132.44 m -0.5, 0 a 0.5,0.5 0 1,0 1,0 a 0.5,0.5 0 1,0 -1,0  M364.45 132.44 L364.45 132.44 357.45 126.44 364.45 120.44 M 364.45 120.44 m -1, 0 a 1,1 0 1,0 2,0 a 1,1 0 1,0 -2,0 M 364.45 120.44 m -0.5, 0 a 0.5,0.5 0 1,0 1,0 a 0.5,0.5 0 1,0 -1,0  M352.45 126.44 Q 327.96 126.44, 303.46 115.06 T 254.47 103.67 M 242.47 103.67 m -1, 0 a 1,1 0 1,0 2,0 a 1,1 0 1,0 -2,0 M 242.47 103.67 m -0.5, 0 a 0.5,0.5 0 1,0 1,0 a 0.5,0.5 0 1,0 -1,0  M242.47 103.67 L242.47 103.67 254.47 103.67 M248.47 109.67 L248.47 109.67 248.47 97.67" id="h1972018373" class="r"></path><path d="M 482.48 151.44 m -1, 0 a 1,1 0 1,0 2,0 a 1,1 0 1,0 -2,0 M 482.48 151.44 m -0.5, 0 a 0.5,0.5 0 1,0 1,0 a 0.5,0.5 0 1,0 -1,0  M482.48 151.44 L482.48 151.44 494.48 151.44 M 482.48 157.44 m -1, 0 a 1,1 0 1,0 2,0 a 1,1 0 1,0 -2,0 M 482.48 157.44 m -0.5, 0 a 0.5,0.5 0 1,0 1,0 a 0.5,0.5 0 1,0 -1,0  M482.48 157.44 L482.48 157.44 489.48 151.44 482.48 145.44 M 482.48 145.44 m -1, 0 a 1,1 0 1,0 2,0 a 1,1 0 1,0 -2,0 M 482.48 145.44 m -0.5, 0 a 0.5,0.5 0 1,0 1,0 a 0.5,0.5 0 1,0 -1,0  M494.48 151.44 Q 524.11 151.44, 553.74 127 T 613 102.56 M 625 102.56 m -1, 0 a 1,1 0 1,0 2,0 a 1,1 0 1,0 -2,0 M 625 102.56 m -0.5, 0 a 0.5,0.5 0 1,0 1,0 a 0.5,0.5 0 1,0 -1,0  M625 102.56 L625 102.56 613 102.56 M619 108.56 L619 108.56 619 96.56" id="h605983093" class="r"></path><path d="M 434.47 371.36 m -1, 0 a 1,1 0 1,0 2,0 a 1,1 0 1,0 -2,0 M 434.47 371.36 m -0.5, 0 a 0.5,0.5 0 1,0 1,0 a 0.5,0.5 0 1,0 -1,0  M434.47 371.36 L434.47 371.36 446.47 371.36 M 434.47 377.36 m -1, 0 a 1,1 0 1,0 2,0 a 1,1 0 1,0 -2,0 M 434.47 377.36 m -0.5, 0 a 0.5,0.5 0 1,0 1,0 a 0.5,0.5 0 1,0 -1,0  M434.47 377.36 L434.47 377.36 441.47 371.36 434.47 365.36 M 434.47 365.36 m -1, 0 a 1,1 0 1,0 2,0 a 1,1 0 1,0 -2,0 M 434.47 365.36 m -0.5, 0 a 0.5,0.5 0 1,0 1,0 a 0.5,0.5 0 1,0 -1,0  M446.47 371.36 C 573.2860000000001 371.36, 544.48 101.44, 494.48 101.44 M 482.48 101.44 m -1, 0 a 1,1 0 1,0 2,0 a 1,1 0 1,0 -2,0 M 482.48 101.44 m -0.5, 0 a 0.5,0.5 0 1,0 1,0 a 0.5,0.5 0 1,0 -1,0  M482.48 101.44 L482.48 101.44 494.48 101.44 M488.48 107.44 L488.48 107.44 488.48 95.44" id="h2216306132" class="r"></path><path d="M 311.76 396.36 m -1, 0 a 1,1 0 1,0 2,0 a 1,1 0 1,0 -2,0 M 311.76 396.36 m -0.5, 0 a 0.5,0.5 0 1,0 1,0 a 0.5,0.5 0 1,0 -1,0  M311.76 396.36 L311.76 396.36 299.76 396.36 M 311.76 402.36 m -1, 0 a 1,1 0 1,0 2,0 a 1,1 0 1,0 -2,0 M 311.76 402.36 m -0.5, 0 a 0.5,0.5 0 1,0 1,0 a 0.5,0.5 0 1,0 -1,0  M311.76 402.36 L311.76 402.36 304.76 396.36 311.76 390.36 M 311.76 390.36 m -1, 0 a 1,1 0 1,0 2,0 a 1,1 0 1,0 -2,0 M 311.76 390.36 m -0.5, 0 a 0.5,0.5 0 1,0 1,0 a 0.5,0.5 0 1,0 -1,0  M299.76 396.36 C -62.096000000000004 396.36, 54.849999999999994 283.02, 104.85 283.02 M 116.85 283.02 m -1, 0 a 1,1 0 1,0 2,0 a 1,1 0 1,0 -2,0 M 116.85 283.02 m -0.5, 0 a 0.5,0.5 0 1,0 1,0 a 0.5,0.5 0 1,0 -1,0  M116.85 283.02 L116.85 283.02 104.85 283.02 M110.85 289.02 L110.85 289.02 110.85 277.02" id="h917984381" class="r"></path></g><g class="hrs"></g><g class="ts"><svg width="118.03" height="100" x="124.44" y="46.67" id="h3591197705" class="t"><rect height="40" width="118.03" class="th"></rect><text x="13" y="25" class="tht">DOCTORS</text><rect height="60" width="118.03" class="t-bg"></rect><text x="13" y="61" class="tf pk">id<tspan x="105.03" class="ty">SERIAL</tspan></text><path d="M7,14A2,2 0 0,1 5,12A2,2 0 0,1 7,10A2,2 0 0,1 9,12A2,2 0 0,1 7,14M12.65,10C11.83,7.67 9.61,6 7, 6A6, 6 0 0, 0 1, 12A6, 6 0 0, 0 7, 18C9.61, 18 11.83, 16.33 12.65, 14H17V18H21V14H23V10H12.65Z" class="i pk" transform="translate(42.344453125, 48) scale(0.65)"></path><text x="13" y="86" class="tf">name<tspan x="105.03" class="ty">TEXT</tspan></text></svg><svg width="128.7" height="150" x="625" y="45.56" id="h2857114813" class="t"><rect height="40" width="128.7" class="th"></rect><text x="13" y="25" class="tht">PATIENTS</text><rect height="110" width="128.7" class="t-bg"></rect><text x="13" y="61" class="tf pk">id<tspan x="115.69999999999999" class="ty">SERIAL</tspan></text><path d="M7,14A2,2 0 0,1 5,12A2,2 0 0,1 7,10A2,2 0 0,1 9,12A2,2 0 0,1 7,14M12.65,10C11.83,7.67 9.61,6 7, 6A6, 6 0 0, 0 1, 12A6, 6 0 0, 0 7, 18C9.61, 18 11.83, 16.33 12.65, 14H17V18H21V14H23V10H12.65Z" class="i pk" transform="translate(53.01445312499999, 48) scale(0.65)"></path><text x="13" y="86" class="tf">name<tspan x="115.69999999999999" class="ty">TEXT</tspan></text><text x="13" y="111" class="tf">insurance<tspan x="115.69999999999999" class="ty">TEXT</tspan></text><text x="13" y="136" class="tf">dob<tspan x="115.69999999999999" class="ty">DATE</tspan></text></svg><svg width="118.03" height="150" x="364.45" y="44.44" id="h3344018279" class="t"><rect height="40" width="118.03" class="th"></rect><text x="13" y="25" class="tht">VISITS</text><rect height="110" width="118.03" class="t-bg"></rect><text x="13" y="61" class="tf pk">id<tspan x="105.03" class="ty">SERIAL</tspan></text><path d="M7,14A2,2 0 0,1 5,12A2,2 0 0,1 7,10A2,2 0 0,1 9,12A2,2 0 0,1 7,14M12.65,10C11.83,7.67 9.61,6 7, 6A6, 6 0 0, 0 1, 12A6, 6 0 0, 0 7, 18C9.61, 18 11.83, 16.33 12.65, 14H17V18H21V14H23V10H12.65Z" class="i pk" transform="translate(42.344453125, 48) scale(0.65)"></path><text x="13" y="86" class="tf fk">doctor_id<tspan x="105.03" class="ty">INT</tspan></text><text x="13" y="111" class="tf fk">patient_id<tspan x="105.03" class="ty">INT</tspan></text><text x="13" y="136" class="tf">date<tspan x="105.03" class="ty">DATE</tspan></text></svg><svg width="118.03" height="100" x="116.85" y="226.02" id="h4101438065" class="t"><rect height="40" width="118.03" class="th"></rect><text x="13" y="25" class="tht">DISEASES</text><rect height="60" width="118.03" class="t-bg"></rect><text x="13" y="61" class="tf pk">id<tspan x="105.03" class="ty">SERIAL</tspan></text><path d="M7,14A2,2 0 0,1 5,12A2,2 0 0,1 7,10A2,2 0 0,1 9,12A2,2 0 0,1 7,14M12.65,10C11.83,7.67 9.61,6 7, 6A6, 6 0 0, 0 1, 12A6, 6 0 0, 0 7, 18C9.61, 18 11.83, 16.33 12.65, 14H17V18H21V14H23V10H12.65Z" class="i pk" transform="translate(42.344453125, 48) scale(0.65)"></path><text x="13" y="86" class="tf">name<tspan x="105.03" class="ty">TEXT</tspan></text></svg><svg width="122.71" height="125" x="311.76" y="289.36" id="h4080331930" class="t"><rect height="40" width="122.71" class="th"></rect><text x="13" y="25" class="tht">DIAGNOSES</text><rect height="85" width="122.71" class="t-bg"></rect><text x="13" y="61" class="tf pk">id<tspan x="109.71" class="ty">SERIAL</tspan></text><path d="M7,14A2,2 0 0,1 5,12A2,2 0 0,1 7,10A2,2 0 0,1 9,12A2,2 0 0,1 7,14M12.65,10C11.83,7.67 9.61,6 7, 6A6, 6 0 0, 0 1, 12A6, 6 0 0, 0 7, 18C9.61, 18 11.83, 16.33 12.65, 14H17V18H21V14H23V10H12.65Z" class="i pk" transform="translate(47.024453124999994, 48) scale(0.65)"></path><text x="13" y="86" class="tf fk">visit_id<tspan x="109.71" class="ty">INT</tspan></text><text x="13" y="111" class="tf fk">disease_id<tspan x="109.71" class="ty">INT</tspan></text></svg></g></g><text class="qdbd-link" x="10" y="20">www.quickdatabasediagrams.com</text></svg>