<svg class="diagram-root" style="background: #f5f6f6" xmlns="http://www.w3.org/2000/svg" xmlns:xlink="http://www.w3.org/1999/xlink"><style>.diagram-root { font-family: "Helvetica Neue", sans-serif; font-size: 12px; } .t { overflow: visible; } .t-bg { y: 40; fill: #fff;   } .th { fill: #005aa0;   } .tht { fill: #fff; font-size: 14px;  } .tf { fill: #323c46; overflow: visible; } .tf.pk { fill: #005aa0; font-weight: bold; } .tf.fk { font-weight: bold; } .ty { fill: #adb1b5; font-weight: normal; text-anchor: end; } .r { fill: transparent; stroke: #c3c3c3; stroke-width: 1; } .l { stroke: 1; } .i { fill: #c2c7ce; stroke: #c2c7ce; } .i.ix { fill: #afb3b6; stroke: #000; } .fa { fill: transparent; overflow: visible; } .fa .bg.hover { fill: #f7f7f7; } .c { cy: 12; r: 4; stroke: #d2d2dc; fill: #d2d2dc; } .hr { fill: transparent; stroke: #323c46; stroke-opacity: 0.035; stroke-width: 13; } .dc { stroke: #fa5a3c; fill: #fa5a3c; } .x { stroke: white; stroke-width: 1; } .hl .th { fill: #1b9bff; } .hl .tht {  } .fhl .bg { fill: #e7f4ff; } .fhls .bg {  } .r.hl { stroke: #1b9bff; } .dim { opacity: 0.25; }</style><g class="drawing-wrapper" transform="translate(-258.00000000000017, -33.33333333333332) scale(1,1)"><g class="rs"><path d="M 623.33 170.32999999999998 m -1, 0 a 1,1 0 1,0 2,0 a 1,1 0 1,0 -2,0 M 623.33 170.32999999999998 m -0.5, 0 a 0.5,0.5 0 1,0 1,0 a 0.5,0.5 0 1,0 -1,0  M623.33 170.32999999999998 L623.33 170.32999999999998 611.33 170.32999999999998 M 623.33 176.32999999999998 m -1, 0 a 1,1 0 1,0 2,0 a 1,1 0 1,0 -2,0 M 623.33 176.32999999999998 m -0.5, 0 a 0.5,0.5 0 1,0 1,0 a 0.5,0.5 0 1,0 -1,0  M623.33 176.32999999999998 L623.33 176.32999999999998 616.33 170.32999999999998 623.33 164.32999999999998 M 623.33 164.32999999999998 m -1, 0 a 1,1 0 1,0 2,0 a 1,1 0 1,0 -2,0 M 623.33 164.32999999999998 m -0.5, 0 a 0.5,0.5 0 1,0 1,0 a 0.5,0.5 0 1,0 -1,0  M611.33 170.32999999999998 Q 576.42 170.32999999999998, 541.52 147 T 471.7 123.67 M 459.7 123.67 m -1, 0 a 1,1 0 1,0 2,0 a 1,1 0 1,0 -2,0 M 459.7 123.67 m -0.5, 0 a 0.5,0.5 0 1,0 1,0 a 0.5,0.5 0 1,0 -1,0  M459.7 123.67 L459.7 123.67 471.7 123.67 M465.7 129.67000000000002 L465.7 129.67000000000002 465.7 117.67" id="h1022453225" class="r"></path><path d="M 509.64 353.96 m -1, 0 a 1,1 0 1,0 2,0 a 1,1 0 1,0 -2,0 M 509.64 353.96 m -0.5, 0 a 0.5,0.5 0 1,0 1,0 a 0.5,0.5 0 1,0 -1,0  M509.64 353.96 L509.64 353.96 497.64 353.96 M 509.64 359.96 m -1, 0 a 1,1 0 1,0 2,0 a 1,1 0 1,0 -2,0 M 509.64 359.96 m -0.5, 0 a 0.5,0.5 0 1,0 1,0 a 0.5,0.5 0 1,0 -1,0  M509.64 359.96 L509.64 359.96 502.64 353.96 509.64 347.96 M 509.64 347.96 m -1, 0 a 1,1 0 1,0 2,0 a 1,1 0 1,0 -2,0 M 509.64 347.96 m -0.5, 0 a 0.5,0.5 0 1,0 1,0 a 0.5,0.5 0 1,0 -1,0  M497.64 353.96 C 178.88800000000003 353.96, 279.67 123.67, 329.67 123.67 M 341.67 123.67 m -1, 0 a 1,1 0 1,0 2,0 a 1,1 0 1,0 -2,0 M 341.67 123.67 m -0.5, 0 a 0.5,0.5 0 1,0 1,0 a 0.5,0.5 0 1,0 -1,0  M341.67 123.67 L341.67 123.67 329.67 123.67 M335.67 129.67000000000002 L335.67 129.67000000000002 335.67 117.67" id="h384351630" class="r"></path><path d="M 509.64 378.96 m -1, 0 a 1,1 0 1,0 2,0 a 1,1 0 1,0 -2,0 M 509.64 378.96 m -0.5, 0 a 0.5,0.5 0 1,0 1,0 a 0.5,0.5 0 1,0 -1,0  M509.64 378.96 L509.64 378.96 497.64 378.96 M 509.64 384.96 m -1, 0 a 1,1 0 1,0 2,0 a 1,1 0 1,0 -2,0 M 509.64 384.96 m -0.5, 0 a 0.5,0.5 0 1,0 1,0 a 0.5,0.5 0 1,0 -1,0  M509.64 384.96 L509.64 384.96 502.64 378.96 509.64 372.96 M 509.64 372.96 m -1, 0 a 1,1 0 1,0 2,0 a 1,1 0 1,0 -2,0 M 509.64 372.96 m -0.5, 0 a 0.5,0.5 0 1,0 1,0 a 0.5,0.5 0 1,0 -1,0  M497.64 378.96 C 178.88800000000003 378.96, 279.67 123.67, 329.67 123.67 M 341.67 123.67 m -1, 0 a 1,1 0 1,0 2,0 a 1,1 0 1,0 -2,0 M 341.67 123.67 m -0.5, 0 a 0.5,0.5 0 1,0 1,0 a 0.5,0.5 0 1,0 -1,0  M341.67 123.67 L341.67 123.67 329.67 123.67 M335.67 129.67000000000002 L335.67 129.67000000000002 335.67 117.67" id="h1599324526" class="r"></path><path d="M 649.47 453.96 m -1, 0 a 1,1 0 1,0 2,0 a 1,1 0 1,0 -2,0 M 649.47 453.96 m -0.5, 0 a 0.5,0.5 0 1,0 1,0 a 0.5,0.5 0 1,0 -1,0  M649.47 453.96 L649.47 453.96 661.47 453.96 M 649.47 459.96 m -1, 0 a 1,1 0 1,0 2,0 a 1,1 0 1,0 -2,0 M 649.47 459.96 m -0.5, 0 a 0.5,0.5 0 1,0 1,0 a 0.5,0.5 0 1,0 -1,0  M649.47 459.96 L649.47 459.96 656.47 453.96 649.47 447.96 M 649.47 447.96 m -1, 0 a 1,1 0 1,0 2,0 a 1,1 0 1,0 -2,0 M 649.47 447.96 m -0.5, 0 a 0.5,0.5 0 1,0 1,0 a 0.5,0.5 0 1,0 -1,0  M661.47 453.96 C 1051.774 453.96, 924.16 333.67, 874.16 333.67 M 862.16 333.67 m -1, 0 a 1,1 0 1,0 2,0 a 1,1 0 1,0 -2,0 M 862.16 333.67 m -0.5, 0 a 0.5,0.5 0 1,0 1,0 a 0.5,0.5 0 1,0 -1,0  M862.16 333.67 L862.16 333.67 874.16 333.67 M868.16 339.67 L868.16 339.67 868.16 327.67" id="h3632272236" class="r"></path><path d="M 509.64 478.96 m -1, 0 a 1,1 0 1,0 2,0 a 1,1 0 1,0 -2,0 M 509.64 478.96 m -0.5, 0 a 0.5,0.5 0 1,0 1,0 a 0.5,0.5 0 1,0 -1,0  M509.64 478.96 L509.64 478.96 497.64 478.96 M 509.64 484.96 m -1, 0 a 1,1 0 1,0 2,0 a 1,1 0 1,0 -2,0 M 509.64 484.96 m -0.5, 0 a 0.5,0.5 0 1,0 1,0 a 0.5,0.5 0 1,0 -1,0  M509.64 484.96 L509.64 484.96 502.64 478.96 509.64 472.96 M 509.64 472.96 m -1, 0 a 1,1 0 1,0 2,0 a 1,1 0 1,0 -2,0 M 509.64 472.96 m -0.5, 0 a 0.5,0.5 0 1,0 1,0 a 0.5,0.5 0 1,0 -1,0  M497.64 478.96 Q 475.74 478.96, 453.84 406.32 T 410.03 333.67 M 398.03 333.67 m -1, 0 a 1,1 0 1,0 2,0 a 1,1 0 1,0 -2,0 M 398.03 333.67 m -0.5, 0 a 0.5,0.5 0 1,0 1,0 a 0.5,0.5 0 1,0 -1,0  M398.03 333.67 L398.03 333.67 410.03 333.67 M404.03 339.67 L404.03 339.67 404.03 327.67" id="h759060974" class="r"></path><path d="M 509.64 503.96 m -1, 0 a 1,1 0 1,0 2,0 a 1,1 0 1,0 -2,0 M 509.64 503.96 m -0.5, 0 a 0.5,0.5 0 1,0 1,0 a 0.5,0.5 0 1,0 -1,0  M509.64 503.96 L509.64 503.96 497.64 503.96 M 509.64 509.96 m -1, 0 a 1,1 0 1,0 2,0 a 1,1 0 1,0 -2,0 M 509.64 509.96 m -0.5, 0 a 0.5,0.5 0 1,0 1,0 a 0.5,0.5 0 1,0 -1,0  M509.64 509.96 L509.64 509.96 502.64 503.96 509.64 497.96 M 509.64 497.96 m -1, 0 a 1,1 0 1,0 2,0 a 1,1 0 1,0 -2,0 M 509.64 497.96 m -0.5, 0 a 0.5,0.5 0 1,0 1,0 a 0.5,0.5 0 1,0 -1,0  M497.64 503.96 Q 475.74 503.96, 453.84 418.82 T 410.03 333.67 M 398.03 333.67 m -1, 0 a 1,1 0 1,0 2,0 a 1,1 0 1,0 -2,0 M 398.03 333.67 m -0.5, 0 a 0.5,0.5 0 1,0 1,0 a 0.5,0.5 0 1,0 -1,0  M398.03 333.67 L398.03 333.67 410.03 333.67 M404.03 339.67 L404.03 339.67 404.03 327.67" id="h1686619326" class="r"></path><path d="M 405.65 557.8 m -1, 0 a 1,1 0 1,0 2,0 a 1,1 0 1,0 -2,0 M 405.65 557.8 m -0.5, 0 a 0.5,0.5 0 1,0 1,0 a 0.5,0.5 0 1,0 -1,0  M405.65 557.8 L405.65 557.8 417.65 557.8 M 405.65 563.8 m -1, 0 a 1,1 0 1,0 2,0 a 1,1 0 1,0 -2,0 M 405.65 563.8 m -0.5, 0 a 0.5,0.5 0 1,0 1,0 a 0.5,0.5 0 1,0 -1,0  M405.65 563.8 L405.65 563.8 412.65 557.8 405.65 551.8 M 405.65 551.8 m -1, 0 a 1,1 0 1,0 2,0 a 1,1 0 1,0 -2,0 M 405.65 551.8 m -0.5, 0 a 0.5,0.5 0 1,0 1,0 a 0.5,0.5 0 1,0 -1,0  M417.65 557.8 Q 466.07 557.8, 514.49 339.07 T 611.33 120.33 M 623.33 120.33 m -1, 0 a 1,1 0 1,0 2,0 a 1,1 0 1,0 -2,0 M 623.33 120.33 m -0.5, 0 a 0.5,0.5 0 1,0 1,0 a 0.5,0.5 0 1,0 -1,0  M623.33 120.33 L623.33 120.33 611.33 120.33 M617.33 126.33 L617.33 126.33 617.33 114.33" id="h133551785" class="r"></path><path d="M 405.65 582.8 m -1, 0 a 1,1 0 1,0 2,0 a 1,1 0 1,0 -2,0 M 405.65 582.8 m -0.5, 0 a 0.5,0.5 0 1,0 1,0 a 0.5,0.5 0 1,0 -1,0  M405.65 582.8 L405.65 582.8 417.65 582.8 M 405.65 588.8 m -1, 0 a 1,1 0 1,0 2,0 a 1,1 0 1,0 -2,0 M 405.65 588.8 m -0.5, 0 a 0.5,0.5 0 1,0 1,0 a 0.5,0.5 0 1,0 -1,0  M405.65 588.8 L405.65 588.8 412.65 582.8 405.65 576.8 M 405.65 576.8 m -1, 0 a 1,1 0 1,0 2,0 a 1,1 0 1,0 -2,0 M 405.65 576.8 m -0.5, 0 a 0.5,0.5 0 1,0 1,0 a 0.5,0.5 0 1,0 -1,0  M417.65 582.8 Q 437.65 582.8, 457.65 455.88 T 497.64 328.96 M 509.64 328.96 m -1, 0 a 1,1 0 1,0 2,0 a 1,1 0 1,0 -2,0 M 509.64 328.96 m -0.5, 0 a 0.5,0.5 0 1,0 1,0 a 0.5,0.5 0 1,0 -1,0  M509.64 328.96 L509.64 328.96 497.64 328.96 M503.64 334.96 L503.64 334.96 503.64 322.96" id="h1236919700" class="r"></path><path d="M 733 550 m -1, 0 a 1,1 0 1,0 2,0 a 1,1 0 1,0 -2,0 M 733 550 m -0.5, 0 a 0.5,0.5 0 1,0 1,0 a 0.5,0.5 0 1,0 -1,0  M733 550 L733 550 721 550 M 733 556 m -1, 0 a 1,1 0 1,0 2,0 a 1,1 0 1,0 -2,0 M 733 556 m -0.5, 0 a 0.5,0.5 0 1,0 1,0 a 0.5,0.5 0 1,0 -1,0  M733 556 L733 556 726 550 733 544 M 733 544 m -1, 0 a 1,1 0 1,0 2,0 a 1,1 0 1,0 -2,0 M 733 544 m -0.5, 0 a 0.5,0.5 0 1,0 1,0 a 0.5,0.5 0 1,0 -1,0  M721 550 Q 658.68 550, 596.35 336.84 T 471.7 123.67 M 459.7 123.67 m -1, 0 a 1,1 0 1,0 2,0 a 1,1 0 1,0 -2,0 M 459.7 123.67 m -0.5, 0 a 0.5,0.5 0 1,0 1,0 a 0.5,0.5 0 1,0 -1,0  M459.7 123.67 L459.7 123.67 471.7 123.67 M465.7 129.67000000000002 L465.7 129.67000000000002 465.7 117.67" id="h2449215401" class="r"></path><path d="M 851.03 575 m -1, 0 a 1,1 0 1,0 2,0 a 1,1 0 1,0 -2,0 M 851.03 575 m -0.5, 0 a 0.5,0.5 0 1,0 1,0 a 0.5,0.5 0 1,0 -1,0  M851.03 575 L851.03 575 863.03 575 M 851.03 581 m -1, 0 a 1,1 0 1,0 2,0 a 1,1 0 1,0 -2,0 M 851.03 581 m -0.5, 0 a 0.5,0.5 0 1,0 1,0 a 0.5,0.5 0 1,0 -1,0  M851.03 581 L851.03 581 858.03 575 851.03 569 M 851.03 569 m -1, 0 a 1,1 0 1,0 2,0 a 1,1 0 1,0 -2,0 M 851.03 569 m -0.5, 0 a 0.5,0.5 0 1,0 1,0 a 0.5,0.5 0 1,0 -1,0  M863.03 575 C 913.03 575, 1033.966 328.96, 661.47 328.96 M 649.47 328.96 m -1, 0 a 1,1 0 1,0 2,0 a 1,1 0 1,0 -2,0 M 649.47 328.96 m -0.5, 0 a 0.5,0.5 0 1,0 1,0 a 0.5,0.5 0 1,0 -1,0  M649.47 328.96 L649.47 328.96 661.47 328.96 M655.47 334.96 L655.47 334.96 655.47 322.96" id="h1714750071" class="r"></path></g><g class="hrs"></g><g class="ts"><svg width="118.03" height="125" x="341.67" y="66.67" id="h3710425793" class="t"><rect height="40" width="118.03" class="th"></rect><text x="13" y="25" class="tht">TEAMS</text><rect height="85" width="118.03" class="t-bg"></rect><text x="13" y="61" class="tf pk">id<tspan x="105.03" class="ty">SERIAL</tspan></text><path d="M7,14A2,2 0 0,1 5,12A2,2 0 0,1 7,10A2,2 0 0,1 9,12A2,2 0 0,1 7,14M12.65,10C11.83,7.67 9.61,6 7, 6A6, 6 0 0, 0 1, 12A6, 6 0 0, 0 7, 18C9.61, 18 11.83, 16.33 12.65, 14H17V18H21V14H23V10H12.65Z" class="i pk" transform="translate(42.344453125, 48) scale(0.65)"></path><text x="13" y="86" class="tf">name<tspan x="105.03" class="ty">TEXT</tspan></text><text x="13" y="111" class="tf">city<tspan x="105.03" class="ty">TEXT</tspan></text></svg><svg width="136.03" height="125" x="623.33" y="63.33" id="h3116282548" class="t"><rect height="40" width="136.03" class="th"></rect><text x="13" y="25" class="tht">PLAYERS</text><rect height="85" width="136.03" class="t-bg"></rect><text x="13" y="61" class="tf pk">id<tspan x="123.03" class="ty">SERIAL</tspan></text><path d="M7,14A2,2 0 0,1 5,12A2,2 0 0,1 7,10A2,2 0 0,1 9,12A2,2 0 0,1 7,14M12.65,10C11.83,7.67 9.61,6 7, 6A6, 6 0 0, 0 1, 12A6, 6 0 0, 0 7, 18C9.61, 18 11.83, 16.33 12.65, 14H17V18H21V14H23V10H12.65Z" class="i pk" transform="translate(60.344453125, 48) scale(0.65)"></path><text x="13" y="86" class="tf">name<tspan x="123.03" class="ty">TEXT</tspan></text><text x="13" y="111" class="tf fk">current_team<tspan x="123.03" class="ty">INT</tspan></text></svg><svg width="118.03" height="100" x="280" y="276.67" id="h2779406633" class="t"><rect height="40" width="118.03" class="th"></rect><text x="13" y="25" class="tht">REFEREES</text><rect height="60" width="118.03" class="t-bg"></rect><text x="13" y="61" class="tf pk">id<tspan x="105.03" class="ty">SERIAL</tspan></text><path d="M7,14A2,2 0 0,1 5,12A2,2 0 0,1 7,10A2,2 0 0,1 9,12A2,2 0 0,1 7,14M12.65,10C11.83,7.67 9.61,6 7, 6A6, 6 0 0, 0 1, 12A6, 6 0 0, 0 7, 18C9.61, 18 11.83, 16.33 12.65, 14H17V18H21V14H23V10H12.65Z" class="i pk" transform="translate(42.344453125, 48) scale(0.65)"></path><text x="13" y="86" class="tf">name<tspan x="105.03" class="ty">TEXT</tspan></text></svg><svg width="130.49" height="125" x="731.67" y="276.67" id="h2562060705" class="t"><rect height="40" width="130.49" class="th"></rect><text x="13" y="25" class="tht">SEASON</text><rect height="85" width="130.49" class="t-bg"></rect><text x="13" y="61" class="tf pk">id<tspan x="117.49000000000001" class="ty">SERIAL</tspan></text><path d="M7,14A2,2 0 0,1 5,12A2,2 0 0,1 7,10A2,2 0 0,1 9,12A2,2 0 0,1 7,14M12.65,10C11.83,7.67 9.61,6 7, 6A6, 6 0 0, 0 1, 12A6, 6 0 0, 0 7, 18C9.61, 18 11.83, 16.33 12.65, 14H17V18H21V14H23V10H12.65Z" class="i pk" transform="translate(54.80445312500001, 48) scale(0.65)"></path><text x="13" y="86" class="tf">start_date<tspan x="117.49000000000001" class="ty">DATE</tspan></text><text x="13" y="111" class="tf">end_date<tspan x="117.49000000000001" class="ty">DATE</tspan></text></svg><svg width="139.83" height="250" x="509.64" y="271.96" id="h1907958759" class="t"><rect height="40" width="139.83" class="th"></rect><text x="13" y="25" class="tht">MATCHES</text><rect height="210" width="139.83" class="t-bg"></rect><text x="13" y="61" class="tf pk">id<tspan x="126.83000000000001" class="ty">SERIAL</tspan></text><path d="M7,14A2,2 0 0,1 5,12A2,2 0 0,1 7,10A2,2 0 0,1 9,12A2,2 0 0,1 7,14M12.65,10C11.83,7.67 9.61,6 7, 6A6, 6 0 0, 0 1, 12A6, 6 0 0, 0 7, 18C9.61, 18 11.83, 16.33 12.65, 14H17V18H21V14H23V10H12.65Z" class="i pk" transform="translate(64.14445312500001, 48) scale(0.65)"></path><text x="13" y="86" class="tf fk">home_team<tspan x="126.83000000000001" class="ty">INT</tspan></text><text x="13" y="111" class="tf fk">away_team<tspan x="126.83000000000001" class="ty">INT</tspan></text><text x="13" y="136" class="tf">location<tspan x="126.83000000000001" class="ty">TEXT</tspan></text><text x="13" y="161" class="tf">match_date<tspan x="126.83000000000001" class="ty">DATE</tspan></text><text x="13" y="186" class="tf fk">season_id<tspan x="126.83000000000001" class="ty">INT</tspan></text><text x="13" y="211" class="tf fk">head_ref_id<tspan x="126.83000000000001" class="ty">INT</tspan></text><text x="13" y="236" class="tf fk">asst_ref_id<tspan x="126.83000000000001" class="ty">INT</tspan></text></svg><svg width="118.03" height="125" x="287.62" y="475.8" id="h2729018540" class="t"><rect height="40" width="118.03" class="th"></rect><text x="13" y="25" class="tht">GOALS</text><rect height="85" width="118.03" class="t-bg"></rect><text x="13" y="61" class="tf pk">id<tspan x="105.03" class="ty">SERIAL</tspan></text><path d="M7,14A2,2 0 0,1 5,12A2,2 0 0,1 7,10A2,2 0 0,1 9,12A2,2 0 0,1 7,14M12.65,10C11.83,7.67 9.61,6 7, 6A6, 6 0 0, 0 1, 12A6, 6 0 0, 0 7, 18C9.61, 18 11.83, 16.33 12.65, 14H17V18H21V14H23V10H12.65Z" class="i pk" transform="translate(42.344453125, 48) scale(0.65)"></path><text x="13" y="86" class="tf fk">player_id<tspan x="105.03" class="ty">INT</tspan></text><text x="13" y="111" class="tf fk">match_ID<tspan x="105.03" class="ty">INT</tspan></text></svg><svg width="118.03" height="125" x="733" y="468" id="h43848280" class="t"><rect height="40" width="118.03" class="th"></rect><text x="13" y="25" class="tht">RESULTS</text><rect height="85" width="118.03" class="t-bg"></rect><text x="13" y="61" class="tf pk">id<tspan x="105.03" class="ty">SERIAL</tspan></text><path d="M7,14A2,2 0 0,1 5,12A2,2 0 0,1 7,10A2,2 0 0,1 9,12A2,2 0 0,1 7,14M12.65,10C11.83,7.67 9.61,6 7, 6A6, 6 0 0, 0 1, 12A6, 6 0 0, 0 7, 18C9.61, 18 11.83, 16.33 12.65, 14H17V18H21V14H23V10H12.65Z" class="i pk" transform="translate(42.344453125, 48) scale(0.65)"></path><text x="13" y="86" class="tf fk">team_id<tspan x="105.03" class="ty">INT</tspan></text><text x="13" y="111" class="tf fk">match_id<tspan x="105.03" class="ty">INT</tspan></text></svg></g></g><text class="qdbd-link" x="10" y="20">www.quickdatabasediagrams.com</text></svg>